# xmcd
#
# Track frame offsets:
#	150
#	16312
#	32109
#	46384
#	61724
#	75762
#	95834
#	113100
#	130603
#	144655
#	160061
#	176297
#	191465
#	203982
#	222675
#	238096
#	251211
#	264654
#	281124
#	297091
#	300391
#	301608
#	302796
#	304284
#	308546
#	310013
#	311238
#
# Disc length: 4211 seconds
#
# Revision: 1
# Processed by: cddbd v1.5.1PL2 Copyright (c) Steve Scherf et al.
# Submitted via: audiograbber 1.83.01
#
DISCID=7810711b
DTITLE=Various Artist - CDX 394
DYEAR=2006
DGENRE=Country
TTITLE0=The Lost Trailers - Call me crazy
TTITLE1=Sara Evans - Coalmine
TTITLE2=Mark McGuinn - Deep
TTITLE3=Brice Long - Meat and potato man
TTITLE4=Doug Stone - Let the light shine on you
TTITLE5=Garth Brooks - That girl is a cowboy
TTITLE6=Cross Canadian Ragweed - This time around
TTITLE7=Josh Turner - Would you go with me
TTITLE8=Joey Daniels - Crazier than usual
TTITLE9=Billy Gilman - Gonna find love
TTITLE10=Brian McComas - Good good lovin'
TTITLE11=Charlie Louvin - If only in a song
TTITLE12=Joe Patrick - I'll know when I get there
TTITLE13=Royal Wade Kimes - I've got your back "bomp bai du dae dum"
TTITLE14=Two Tons Of Steel - I wanna be sedated
TTITLE15=Michelle Rene - Kick it up a notch
TTITLE16=Cerrito - South of the border (down Mexico way)
TTITLE17=Brandi Valentine - Talkin' real loud
TTITLE18=Jessica Dean - Almost doesn't count
TTITLE19=Keith Anderson - CMA Music Festival liner 1
TTITLE20=Keith Anderson - CMA Music Festival liner 2
TTITLE21=Jamie O'Neal - CMA Music Festival liner 1
TTITLE22=Jamie O'Neal - CMA Music Festival liner 2
TTITLE23=Josh Turner - CMA Music Festival liner 
TTITLE24=Sugarland - CMA Music Festival liner 1
TTITLE25=Sugarland - CMA Music Festival liner 2
TTITLE26=Marti Carelli-Gilbert - Grandma's camp
EXTD=
EXTT0=
EXTT1=
EXTT2=
EXTT3=
EXTT4=
EXTT5=
EXTT6=
EXTT7=
EXTT8=
EXTT9=
EXTT10=
EXTT11=
EXTT12=
EXTT13=
EXTT14=
EXTT15=
EXTT16=
EXTT17=
EXTT18=
EXTT19=
EXTT20=
EXTT21=
EXTT22=
EXTT23=
EXTT24=
EXTT25=
EXTT26=
PLAYORDER=
